<svg width="74" height="90" viewBox="0 0 74 90" fill="none" xmlns="http://www.w3.org/2000/svg">
<ellipse cx="63.5337" cy="54.9993" rx="6.63785" ry="7.58611" fill="#E69B7E"/>
<ellipse cx="12.3274" cy="54.9993" rx="6.63785" ry="7.58611" fill="#E69B7E"/>
<circle cx="23.7066" cy="21.8101" r="12.3274" fill="#2B2B2B"/>
<circle cx="12.3274" cy="38.8788" r="12.3274" fill="#2B2B2B"/>
<path d="M24.6549 38.8788C24.6549 42.1483 23.3561 45.2838 21.0442 47.5956C18.7324 49.9075 15.5969 51.2063 12.3274 51.2063C9.058 51.2063 5.92247 49.9075 3.61062 47.5956C1.29878 45.2838 4.93672e-07 42.1483 0 38.8788L12.3274 38.8788H24.6549Z" fill="#909090"/>
<circle cx="61.6372" cy="38.8788" r="12.3274" fill="#2B2B2B"/>
<path d="M73.9646 38.8788C73.9646 40.4977 73.6457 42.1007 73.0262 43.5963C72.4067 45.092 71.4987 46.4509 70.354 47.5956C69.2093 48.7403 67.8503 49.6484 66.3547 50.2679C64.859 50.8874 63.256 51.2063 61.6372 51.2063C60.0183 51.2063 58.4153 50.8874 56.9197 50.2679C55.424 49.6484 54.0651 48.7403 52.9203 47.5956C51.7756 46.4509 50.8676 45.092 50.2481 43.5963C49.6286 42.1007 49.3097 40.4977 49.3097 38.8788L61.6372 38.8788H73.9646Z" fill="#909090"/>
<path d="M12.1779 49.4496C12.1779 35.3094 23.6408 23.8464 37.781 23.8464C51.9212 23.8464 63.3842 35.3094 63.3842 49.4496V72.1893C63.3842 72.7233 62.9513 73.1562 62.4173 73.1562H13.1447C12.6108 73.1562 12.1779 72.7233 12.1779 72.1893V49.4496Z" fill="#E69B7E"/>
<path d="M27.4995 37.9305C32.2128 37.9305 36.0335 42.1759 36.0336 47.413C36.0336 51.4429 33.7702 54.8827 30.5795 56.2557C30.7711 54.7901 28.4948 52.7602 25.2524 51.58C23.0525 50.7793 20.9408 50.5643 19.562 50.8973C19.1781 49.8186 18.9653 48.6434 18.9653 47.413C18.9654 42.176 22.7862 37.9307 27.4995 37.9305Z" fill="white"/>
<path d="M29.3958 43.6211C31.2101 43.6211 32.6809 45.6801 32.6809 48.2197C32.6808 50.7592 31.21 52.8174 29.3958 52.8174C27.5816 52.8172 26.1107 50.7591 26.1106 48.2197C26.1106 45.6802 27.5815 43.6212 29.3958 43.6211Z" fill="#2B2B2B"/>
<path d="M46.4648 37.9305C51.1781 37.9305 54.9988 42.1759 54.9989 47.413C54.9989 49.3714 54.4643 51.1911 53.5487 52.702C52.4281 52.7865 51.1369 53.0783 49.8173 53.5848C47.6506 54.4166 45.9262 55.6252 45.0956 56.7723C41.0334 56.0442 37.9306 52.132 37.9306 47.413C37.9307 42.176 41.7515 37.9307 46.4648 37.9305Z" fill="white"/>
<rect x="3.79306" y="58.7924" width="68.275" height="30.3445" rx="15.1722" fill="#2B2B2B"/>
<path d="M49.6756 69.1368C48.7318 76.2366 39.0708 80.6094 33.4823 76.4662" stroke="white" stroke-width="3" stroke-linecap="round"/>
<circle cx="36.034" cy="60.6889" r="5.68959" fill="#E69B7E"/>
<path d="M44.5688 43.6211C42.7545 43.6211 41.2837 45.6801 41.2837 48.2197C41.2838 50.7592 42.7546 52.8174 44.5688 52.8174C46.383 52.8172 47.8539 50.7591 47.854 48.2197C47.854 45.6802 46.3831 43.6212 44.5688 43.6211Z" fill="#2B2B2B"/>
<circle cx="45.5167" cy="17.0688" r="17.0688" fill="#2B2B2B"/>
</svg>
