<svg width="77" height="98" viewBox="0 0 77 98" fill="none" xmlns="http://www.w3.org/2000/svg">
<path d="M0 38.5C0 17.237 17.237 0 38.5 0C59.763 0 77 17.237 77 38.5V83.2632C77 90.9951 70.732 97.2632 63 97.2632H14C6.26801 97.2632 0 90.9951 0 83.2632V38.5Z" fill="#A56645"/>
<path d="M5.60699 44.9842C5.60699 50.3559 9.96162 54.7105 15.3333 54.7105H60.7228C66.0945 54.7105 70.4491 50.3559 70.4491 44.9842V38.5C70.4491 20.5943 55.9337 6.07893 38.028 6.07893C20.1224 6.07893 5.60699 20.5943 5.60699 38.5V44.9842Z" fill="#77C801"/>
<path d="M38.0278 14.1842C54.2021 14.1842 67.4236 26.818 68.3667 42.7555C68.4027 43.0882 68.4224 43.4259 68.4224 43.7682V51.4684C68.4224 51.81 68.4025 52.1471 68.3667 52.4791C67.4247 68.4177 54.2029 81.0524 38.0278 81.0524C21.8582 81.0523 8.63964 68.4259 7.68994 52.4948C7.65302 52.1577 7.6333 51.8153 7.6333 51.4684V43.7682C7.63331 43.421 7.65294 43.0782 7.68994 42.7408C8.64025 26.8103 21.8586 14.1843 38.0278 14.1842Z" fill="#FFB5A4"/>
<path d="M35.8688 40.3575C35.9436 39.3109 36.8145 38.5 37.8637 38.5H38.1919C39.2412 38.5 40.1121 39.3109 40.1868 40.3575L40.9143 50.5417C40.997 51.6995 40.08 52.6842 38.9193 52.6842H37.1363C35.9756 52.6842 35.0587 51.6995 35.1414 50.5417L35.8688 40.3575Z" fill="#FFB5A4"/>
<path d="M35.8688 40.3575C35.9436 39.3109 36.8145 38.5 37.8637 38.5H38.1919C39.2412 38.5 40.1121 39.3109 40.1868 40.3575L40.9143 50.5417C40.997 51.6995 40.08 52.6842 38.9193 52.6842H37.1363C35.9756 52.6842 35.0587 51.6995 35.1414 50.5417L35.8688 40.3575Z" fill="black" fill-opacity="0.08"/>
<circle cx="25.8702" cy="38.5" r="10.1316" fill="white"/>
<circle cx="50.1857" cy="38.5" r="10.1316" fill="white"/>
<path d="M52.2124 38.4996C52.2124 39.1647 52.1336 39.8237 51.981 40.4381C51.8282 41.0526 51.6039 41.6113 51.3218 42.0817C51.0395 42.5521 50.7042 42.9257 50.3354 43.1803C49.9667 43.4348 49.5714 43.566 49.1724 43.566C48.7733 43.566 48.378 43.4348 48.0093 43.1803C47.6405 42.9257 47.3052 42.5521 47.0229 42.0817C46.7408 41.6114 46.5174 41.0525 46.3647 40.4381C46.2121 39.8236 46.1333 39.1647 46.1333 38.4996C46.1333 37.8345 46.212 37.1757 46.3647 36.5612C46.5175 35.9467 46.7408 35.3879 47.0229 34.9176C47.3051 34.4473 47.6406 34.0745 48.0093 33.8199C48.378 33.5654 48.7733 33.4342 49.1724 33.4342C49.5715 33.4342 49.9667 33.5654 50.3354 33.8199C50.7042 34.0745 51.0396 34.4473 51.3218 34.9176C51.604 35.388 51.8282 35.9466 51.981 36.5612C52.1337 37.1757 52.2124 37.8345 52.2124 38.4996Z" fill="#192221"/>
<path d="M31.9492 38.4996C31.9492 39.1647 31.8704 39.8236 31.7178 40.4381C31.5651 41.0526 31.3408 41.6113 31.0586 42.0817C30.7764 42.5521 30.441 42.9257 30.0723 43.1803C29.7036 43.4348 29.3082 43.566 28.9092 43.566C28.5101 43.566 28.1148 43.4348 27.7461 43.1803C27.3773 42.9257 27.042 42.5521 26.7598 42.0817C26.4777 41.6114 26.2543 41.0525 26.1016 40.4381C25.9489 39.8236 25.8701 39.1647 25.8701 38.4996C25.8701 37.8345 25.9488 37.1757 26.1016 36.5612C26.2543 35.9467 26.4776 35.3879 26.7598 34.9176C27.042 34.4473 27.3774 34.0745 27.7461 33.8199C28.1148 33.5654 28.5101 33.4342 28.9092 33.4342C29.3083 33.4342 29.7035 33.5654 30.0723 33.8199C30.441 34.0745 30.7764 34.4473 31.0586 34.9176C31.3408 35.388 31.565 35.9466 31.7178 36.5612C31.8705 37.1757 31.9492 37.8345 31.9492 38.4996Z" fill="#192221"/>
<path d="M49.6447 58.7632C44.5789 64.8421 30.3947 64.8421 25.8699 58.7632" stroke="#ED9B86" stroke-width="2" stroke-linecap="round"/>
</svg>
