<svg width="189" height="186" viewBox="0 0 189 186" fill="none" xmlns="http://www.w3.org/2000/svg">
<ellipse cx="124.165" cy="60.2628" rx="7.27311" ry="8.31213" fill="#E69B7E"/>
<ellipse cx="68.0578" cy="60.2628" rx="7.27311" ry="8.31213" fill="#E69B7E"/>
<ellipse cx="80.526" cy="23.8973" rx="13.5072" ry="13.5072" fill="#2B2B2B"/>
<ellipse cx="68.0579" cy="42.5995" rx="13.5072" ry="13.5072" fill="#2B2B2B"/>
<path d="M81.5651 42.5995C81.5651 46.1818 80.142 49.6174 77.6089 52.1505C75.0758 54.6836 71.6402 56.1067 68.0579 56.1067C64.4755 56.1067 61.0399 54.6836 58.5068 52.1505C55.9737 49.6174 54.5507 46.1818 54.5507 42.5995L68.0579 42.5995H81.5651Z" fill="#909090"/>
<ellipse cx="122.087" cy="42.5995" rx="13.5072" ry="13.5072" fill="#2B2B2B"/>
<path d="M135.594 42.5995C135.594 44.3733 135.245 46.1297 134.566 47.7685C133.887 49.4072 132.892 50.8963 131.638 52.1505C130.383 53.4048 128.894 54.3997 127.256 55.0785C125.617 55.7573 123.86 56.1067 122.087 56.1067C120.313 56.1067 118.556 55.7573 116.918 55.0785C115.279 54.3997 113.79 53.4048 112.536 52.1505C111.281 50.8963 110.286 49.4072 109.608 47.7685C108.929 46.1297 108.579 44.3733 108.579 42.5995L122.087 42.5995H135.594Z" fill="#909090"/>
<rect x="50.3946" y="153.774" width="89.3554" height="10.3902" rx="1" fill="#4B4B4B"/>
<rect x="94.0333" y="153.774" width="16.6243" height="10.3902" rx="1" fill="#8E8E8E"/>
<path d="M50.3946 112.98C50.3946 109.114 53.5286 105.98 57.3946 105.98H132.75C136.616 105.98 139.75 109.114 139.75 112.98V152.775C139.75 153.327 139.302 153.775 138.75 153.775H51.3946C50.8423 153.775 50.3946 153.327 50.3946 152.775V112.98Z" fill="#1CB0F6"/>
<path d="M153.608 112.373C155.439 111.137 157.925 111.62 159.161 113.452L168.632 127.493C169.867 129.324 169.384 131.81 167.552 133.046L156.569 140.454C149.243 145.396 139.298 143.463 134.357 136.137L129.919 129.557C129.61 129.099 129.731 128.478 130.189 128.169L153.608 112.373Z" fill="#1CB0F6"/>
<path d="M102.345 126.039L124.478 106.799C126.979 104.625 130.769 104.89 132.943 107.391L151.026 128.193L124.365 151.369L102.345 126.039Z" fill="#1CB0F6"/>
<path d="M106.502 137.15C106.502 132.994 97.1505 105.98 95.0724 105.98C92.9942 105.98 83.6432 132.994 83.6432 137.15C86.7601 140.268 90.9162 143.385 95.0724 145.463C99.2283 143.385 104.423 140.268 106.502 137.15Z" fill="#1998E7"/>
<path d="M67.0188 55.0676C67.0188 39.5741 79.5788 27.0142 95.0722 27.0142C110.566 27.0142 123.126 39.5741 123.126 55.0676V102.394C123.126 103.226 122.451 103.901 121.618 103.901H68.5264C67.6938 103.901 67.0188 103.226 67.0188 102.394V55.0676Z" fill="#E69B7E"/>
<path d="M162.998 107.908C166.405 105.695 170.96 106.664 173.173 110.071L175.869 114.222C178.081 117.629 177.113 122.184 173.706 124.397C172.343 125.282 170.521 124.895 169.636 123.532L162.133 111.978C161.248 110.615 161.635 108.793 162.998 107.908Z" fill="#E69B7E"/>
<path d="M18.9936 179.416C15.776 183.052 10.22 183.392 6.58384 180.174C2.9477 176.956 2.60839 171.4 5.82598 167.764L10.2941 162.715C12.5681 160.145 16.495 159.905 19.0649 162.179L22.9261 165.596C25.496 167.87 25.7358 171.797 23.4617 174.367L18.9936 179.416Z" fill="#E69B7E"/>
<rect x="163.547" y="99.7456" width="4.15606" height="5.19508" rx="2.07803" transform="rotate(78.7442 163.547 99.7456)" fill="#E69B7E"/>
<rect x="11.851" y="155.853" width="4.15606" height="5.19508" rx="2.07803" transform="rotate(78.7442 11.851 155.853)" fill="#E69B7E"/>
<path d="M173.365 96.0353C174.695 96.5737 175.336 98.0882 174.798 99.4179L172.921 104.052C172.606 104.83 171.72 105.205 170.943 104.89L168.944 104.081C168.166 103.766 167.791 102.88 168.106 102.102L169.983 97.4679C170.521 96.1382 172.035 95.4968 173.365 96.0353Z" fill="#E69B7E"/>
<path d="M183.062 102.771C183.928 103.915 183.703 105.544 182.559 106.409L178.572 109.427C177.903 109.933 176.95 109.801 176.444 109.132L175.143 107.413C174.636 106.744 174.768 105.791 175.437 105.285L179.423 102.267C180.567 101.401 182.197 101.627 183.062 102.771Z" fill="#E69B7E"/>
<path d="M185.52 124.832C184.947 126.147 183.416 126.749 182.101 126.176L179.105 124.871C178.511 124.612 178.239 123.921 178.498 123.327L179.636 120.715C179.895 120.121 180.586 119.849 181.18 120.108L184.176 121.413C185.491 121.986 186.093 123.517 185.52 124.832Z" fill="#E69B7E"/>
<path d="M188.205 113.124C188.007 111.703 186.694 110.712 185.273 110.911L180.322 111.602C179.491 111.719 178.911 112.486 179.027 113.318L179.326 115.453C179.442 116.284 180.21 116.864 181.041 116.748L185.992 116.056C187.413 115.857 188.404 114.545 188.205 113.124Z" fill="#E69B7E"/>
<path d="M84.6826 41.5605C89.8469 41.5608 94.0331 46.213 94.0331 51.9512C94.033 56.3663 91.5531 60.1351 88.0576 61.6396C88.2674 60.0338 85.7724 57.8097 82.2197 56.5166C79.8089 55.6392 77.4951 55.4034 75.9843 55.7686C75.5638 54.5867 75.331 53.2992 75.331 51.9512C75.331 46.2128 79.5181 41.5605 84.6826 41.5605Z" fill="white"/>
<path d="M86.7607 47.7959C88.7485 47.796 90.3602 50.0516 90.3604 52.834C90.3604 55.6166 88.7486 57.8729 86.7607 57.873C84.7728 57.873 83.1611 55.6166 83.1611 52.834C83.1613 50.0515 84.7729 47.7959 86.7607 47.7959Z" fill="#2B2B2B"/>
<path d="M105.463 41.5605C110.627 41.5608 114.813 46.213 114.813 51.9512C114.813 54.0966 114.227 56.0898 113.225 57.7451C111.996 57.8376 110.582 58.1588 109.136 58.7139C106.762 59.625 104.873 60.9484 103.963 62.2051C99.5116 61.4076 96.1115 57.1219 96.1113 51.9512C96.1113 46.2128 100.298 41.5605 105.463 41.5605Z" fill="white"/>
<rect x="58.7067" y="64.4189" width="74.8091" height="33.2485" rx="16.6243" fill="#2B2B2B"/>
<ellipse cx="94.0333" cy="66.4973" rx="6.2341" ry="6.2341" fill="#E69B7E"/>
<path d="M88.4063 74.8346C91.0604 76.8515 96.3041 74.6289 97.7574 76.9126C99.2108 79.1964 99.3229 78.9352 98.7965 81.0687C98.27 83.2022 95.318 83.7153 92.5624 84.1857C89.8067 84.6562 87.6359 84.5489 85.2893 83.1467C82.9426 81.7445 82.2525 80.4457 81.1332 77.9516L81.1026 77.8834C79.99 75.4048 78.7018 72.535 80.0942 70.6785C81.4993 68.805 81.8836 68.469 84.2502 68.6005C86.6169 68.732 85.7522 72.8177 88.4063 74.8346Z" fill="white"/>
<path d="M103.384 47.7959C101.396 47.796 99.7844 50.0516 99.7842 52.834C99.7842 55.6166 101.396 57.8729 103.384 57.873C105.372 57.873 106.983 55.6166 106.983 52.834C106.983 50.0515 105.372 47.7959 103.384 47.7959Z" fill="#2B2B2B"/>
<ellipse cx="104.423" cy="18.7023" rx="18.7023" ry="18.7023" fill="#2B2B2B"/>
<path d="M57.5742 106.874C59.0524 105.233 61.5816 105.1 63.2233 106.578L77.2378 119.197L34.1331 167.07L17.146 151.774L57.5742 106.874Z" fill="#1CB0F6"/>
<rect x="24.1138" y="141.306" width="27.0144" height="16.6243" rx="2" transform="rotate(42 24.1138 141.306)" fill="#1998E7"/>
<path d="M155.219 109C155.677 108.691 156.298 108.812 156.607 109.269L171.313 131.072C171.622 131.529 171.501 132.151 171.043 132.46L163.64 137.453C163.182 137.762 162.561 137.641 162.252 137.183L147.546 115.381C147.238 114.923 147.358 114.302 147.816 113.993L155.219 109Z" fill="#1998E7"/>
<path d="M50.2839 164.908C50.2839 164.356 50.7317 163.908 51.2839 163.908H138.538C139.09 163.908 139.538 164.356 139.538 164.908V184.279C139.538 184.831 139.09 185.279 138.538 185.279H51.2839C50.7317 185.279 50.2839 184.831 50.2839 184.279V164.908Z" fill="#2B71C9"/>
</svg>
